<?xml version="1.0" encoding="utf-8"?>
<!-- Generator: Adobe Illustrator 18.1.0, SVG Export Plug-In . SVG Version: 6.00 Build 0)  -->
<svg version="1.1" id="Layer_1" xmlns="http://www.w3.org/2000/svg" xmlns:xlink="http://www.w3.org/1999/xlink" x="0px" y="0px"
	 viewBox="0 0 72 72" enable-background="new 0 0 72 72" xml:space="preserve">
<g>
	<path fill="#1B9CFA" d="M36,0C16.1,0,0,16.1,0,36s16.1,36,36,36s36-16.1,36-36S55.9,0,36,0z M40.6,11.2c1.4,0,2.6,0.5,3.3,1.4
		c0.7,0.9,1.1,2,1.1,3.2c0,3-2.4,5.9-5.8,5.9c0,0-0.1,0-0.1,0c-2.6,0-4.3-2-4.3-4.8C34.8,14.4,36.8,11.2,40.6,11.2z M45,51.5
		c-5,5.5-11.2,8.8-13.6,8.8c0,0,0,0,0,0c-0.8,0-1.6-0.2-2.2-0.9c-0.6-0.7-0.9-1.7-0.9-3.1c0-1.1,0.2-3.5,0.6-5.2l3.6-15.6
		c0.2-0.9,0.3-1.5,0.3-1.8c-0.6,0.2-3.4,2.2-4.7,3.3l-0.5,0.4l-1.4-3.8l0.3-0.3c5.1-4.7,11.2-8.5,14-8.5c0.8,0,1.5,0.4,1.9,1.1
		c0.4,0.7,0.5,1.5,0.5,2.5c0,1.1-0.2,3.4-0.5,4.9l-4,16.1c-0.2,0.8-0.3,1.3-0.3,1.7c0,0.2,0,0.3,0,0.4c0.4-0.1,3.2-2,5.1-3.7
		l0.4-0.4l1.5,3.3l0.2,0.3L45,51.5z"/>
</g>
</svg>
